G04 #@! TF.FileFunction,Copper,L1,Top,Signal*
%FSLAX46Y46*%
G04 Gerber Fmt 4.6, Leading zero omitted, Abs format (unit mm)*
G04 Created by KiCad (PCBNEW 4.0.1-stable) date 2017/04/29 17:49:22*
%MOMM*%
G01*
G04 APERTURE LIST*
%ADD10C,0.050000*%
%ADD11R,1.079500X1.049020*%
%ADD12R,3.048000X1.524000*%
%ADD13O,3.048000X1.524000*%
%ADD14C,1.625000*%
%ADD15R,0.522000X0.725000*%
%ADD16C,0.800000*%
%ADD17C,0.600000*%
%ADD18C,0.250000*%
%ADD19C,0.300000*%
%ADD20C,0.254000*%
G04 APERTURE END LIST*
D10*
D11*
X154500000Y-108373760D03*
X154500000Y-106626240D03*
D12*
X142000000Y-102420000D03*
D13*
X142000000Y-104960000D03*
X142000000Y-107500000D03*
X142000000Y-110040000D03*
X142000000Y-112580000D03*
D11*
X149500000Y-104373760D03*
X149500000Y-102626240D03*
X152000000Y-102626240D03*
X152000000Y-104373760D03*
D14*
X150000000Y-107500000D03*
D15*
X151252000Y-106662500D03*
X151252000Y-108337500D03*
X152074000Y-108337500D03*
X152074000Y-106662500D03*
D16*
X147000000Y-107500000D03*
X146000000Y-104500000D03*
X144500000Y-110000000D03*
X149500000Y-112000000D03*
X153500000Y-105500000D03*
D17*
X152361000Y-105797900D03*
X148213800Y-108081400D03*
D18*
X144492900Y-101776400D02*
X143849300Y-102420000D01*
X152000000Y-101776400D02*
X144492900Y-101776400D01*
X142000000Y-102420000D02*
X143849300Y-102420000D01*
X152000000Y-102432100D02*
X152000000Y-101776400D01*
X153598600Y-108337500D02*
X153634900Y-108373800D01*
X152074000Y-108337500D02*
X153598600Y-108337500D01*
X154500000Y-108373800D02*
X153634900Y-108373800D01*
X152000000Y-102432100D02*
X152000000Y-102626200D01*
X155365100Y-107508700D02*
X154500000Y-108373800D01*
X155365100Y-105126200D02*
X155365100Y-107508700D01*
X152865100Y-102626200D02*
X155365100Y-105126200D01*
X152000000Y-102626200D02*
X152865100Y-102626200D01*
D19*
X144500000Y-110000000D02*
X147500000Y-110000000D01*
X146000000Y-106500000D02*
X147000000Y-107500000D01*
X147000000Y-103476000D02*
X147000000Y-103500000D01*
X147000000Y-103500000D02*
X146000000Y-104500000D01*
X146000000Y-104500000D02*
X146000000Y-106500000D01*
X147500000Y-110000000D02*
X149500000Y-112000000D01*
X154500000Y-106626240D02*
X154500000Y-106500000D01*
X154500000Y-106500000D02*
X153500000Y-105500000D01*
D18*
X149500000Y-102626200D02*
X149500000Y-103363400D01*
X154476000Y-107500000D02*
X154500000Y-107476000D01*
X150000000Y-107500000D02*
X154476000Y-107500000D01*
X154500000Y-106626200D02*
X154500000Y-107476000D01*
X143484000Y-103476000D02*
X142000000Y-104960000D01*
X149500000Y-103476000D02*
X147000000Y-103476000D01*
X147000000Y-103476000D02*
X143484000Y-103476000D01*
X149500000Y-103363400D02*
X149500000Y-103476000D01*
X154500000Y-105316000D02*
X154500000Y-106626200D01*
X152660000Y-103476000D02*
X154500000Y-105316000D01*
X149500000Y-103476000D02*
X152660000Y-103476000D01*
X150382800Y-109206700D02*
X151252000Y-108337500D01*
X143706700Y-109206700D02*
X150382800Y-109206700D01*
X142000000Y-107500000D02*
X143706700Y-109206700D01*
X152074000Y-106662500D02*
X152074000Y-105974700D01*
X152184200Y-105974700D02*
X152361000Y-105797900D01*
X152074000Y-105974700D02*
X152184200Y-105974700D01*
D19*
X150251100Y-105974700D02*
X148525300Y-105974700D01*
X148213800Y-106286200D02*
X148213800Y-108081400D01*
X148525300Y-105974700D02*
X148213800Y-106286200D01*
D18*
X151252000Y-106662500D02*
X151252000Y-105974700D01*
X149500000Y-104373800D02*
X149500000Y-105223600D01*
X152000000Y-105226700D02*
X151252000Y-105974700D01*
X152000000Y-104373800D02*
X152000000Y-105226700D01*
X148213800Y-107659100D02*
X148213800Y-108081400D01*
X150251100Y-105974700D02*
X150074700Y-105798200D01*
X151252000Y-105974700D02*
X150251100Y-105974700D01*
X150074700Y-105798200D02*
X149500000Y-105223600D01*
D20*
G36*
X155691091Y-101289041D02*
X155365372Y-102073459D01*
X155364630Y-102922815D01*
X155688980Y-103707800D01*
X156289041Y-104308909D01*
X157073459Y-104634628D01*
X157922815Y-104635370D01*
X158707800Y-104311020D01*
X159290000Y-103729835D01*
X159290000Y-111271143D01*
X158710959Y-110691091D01*
X157926541Y-110365372D01*
X157077185Y-110364630D01*
X156292200Y-110688980D01*
X155691091Y-111289041D01*
X155365372Y-112073459D01*
X155364630Y-112922815D01*
X155688980Y-113707800D01*
X156270165Y-114290000D01*
X140710000Y-114290000D01*
X140710000Y-113880388D01*
X141195703Y-113977000D01*
X142804297Y-113977000D01*
X143338906Y-113870660D01*
X143792125Y-113567828D01*
X144094957Y-113114609D01*
X144201297Y-112580000D01*
X144094957Y-112045391D01*
X143792125Y-111592172D01*
X143369826Y-111310000D01*
X143792125Y-111027828D01*
X144094957Y-110574609D01*
X144201297Y-110040000D01*
X144186717Y-109966700D01*
X150382800Y-109966700D01*
X150673639Y-109908848D01*
X150920201Y-109744101D01*
X151316862Y-109347440D01*
X151513000Y-109347440D01*
X151668507Y-109318179D01*
X151813000Y-109347440D01*
X152335000Y-109347440D01*
X152570317Y-109303162D01*
X152786441Y-109164090D01*
X152831940Y-109097500D01*
X153350298Y-109097500D01*
X153357088Y-109133587D01*
X153496160Y-109349711D01*
X153708360Y-109494701D01*
X153960250Y-109545710D01*
X155039750Y-109545710D01*
X155275067Y-109501432D01*
X155491191Y-109362360D01*
X155636181Y-109150160D01*
X155687190Y-108898270D01*
X155687190Y-108261412D01*
X155902501Y-108046101D01*
X156067248Y-107799539D01*
X156125100Y-107508700D01*
X156125100Y-105126200D01*
X156067248Y-104835361D01*
X155902501Y-104588799D01*
X153402501Y-102088799D01*
X153155939Y-101924052D01*
X153153673Y-101923601D01*
X153142912Y-101866413D01*
X153003840Y-101650289D01*
X152791640Y-101505299D01*
X152702483Y-101487244D01*
X152702148Y-101485561D01*
X152537401Y-101238999D01*
X152290839Y-101074252D01*
X152000000Y-101016400D01*
X144492900Y-101016400D01*
X144202061Y-101074252D01*
X143992889Y-101214016D01*
X143988090Y-101206559D01*
X143775890Y-101061569D01*
X143524000Y-101010560D01*
X140710000Y-101010560D01*
X140710000Y-100710000D01*
X156271143Y-100710000D01*
X155691091Y-101289041D01*
X155691091Y-101289041D01*
G37*
X155691091Y-101289041D02*
X155365372Y-102073459D01*
X155364630Y-102922815D01*
X155688980Y-103707800D01*
X156289041Y-104308909D01*
X157073459Y-104634628D01*
X157922815Y-104635370D01*
X158707800Y-104311020D01*
X159290000Y-103729835D01*
X159290000Y-111271143D01*
X158710959Y-110691091D01*
X157926541Y-110365372D01*
X157077185Y-110364630D01*
X156292200Y-110688980D01*
X155691091Y-111289041D01*
X155365372Y-112073459D01*
X155364630Y-112922815D01*
X155688980Y-113707800D01*
X156270165Y-114290000D01*
X140710000Y-114290000D01*
X140710000Y-113880388D01*
X141195703Y-113977000D01*
X142804297Y-113977000D01*
X143338906Y-113870660D01*
X143792125Y-113567828D01*
X144094957Y-113114609D01*
X144201297Y-112580000D01*
X144094957Y-112045391D01*
X143792125Y-111592172D01*
X143369826Y-111310000D01*
X143792125Y-111027828D01*
X144094957Y-110574609D01*
X144201297Y-110040000D01*
X144186717Y-109966700D01*
X150382800Y-109966700D01*
X150673639Y-109908848D01*
X150920201Y-109744101D01*
X151316862Y-109347440D01*
X151513000Y-109347440D01*
X151668507Y-109318179D01*
X151813000Y-109347440D01*
X152335000Y-109347440D01*
X152570317Y-109303162D01*
X152786441Y-109164090D01*
X152831940Y-109097500D01*
X153350298Y-109097500D01*
X153357088Y-109133587D01*
X153496160Y-109349711D01*
X153708360Y-109494701D01*
X153960250Y-109545710D01*
X155039750Y-109545710D01*
X155275067Y-109501432D01*
X155491191Y-109362360D01*
X155636181Y-109150160D01*
X155687190Y-108898270D01*
X155687190Y-108261412D01*
X155902501Y-108046101D01*
X156067248Y-107799539D01*
X156125100Y-107508700D01*
X156125100Y-105126200D01*
X156067248Y-104835361D01*
X155902501Y-104588799D01*
X153402501Y-102088799D01*
X153155939Y-101924052D01*
X153153673Y-101923601D01*
X153142912Y-101866413D01*
X153003840Y-101650289D01*
X152791640Y-101505299D01*
X152702483Y-101487244D01*
X152702148Y-101485561D01*
X152537401Y-101238999D01*
X152290839Y-101074252D01*
X152000000Y-101016400D01*
X144492900Y-101016400D01*
X144202061Y-101074252D01*
X143992889Y-101214016D01*
X143988090Y-101206559D01*
X143775890Y-101061569D01*
X143524000Y-101010560D01*
X140710000Y-101010560D01*
X140710000Y-100710000D01*
X156271143Y-100710000D01*
X155691091Y-101289041D01*
G36*
X150812810Y-103150750D02*
X150857088Y-103386067D01*
X150930373Y-103499955D01*
X150863819Y-103597360D01*
X150812810Y-103849250D01*
X150812810Y-104898270D01*
X150857088Y-105133587D01*
X150909283Y-105214700D01*
X150592083Y-105214700D01*
X150636181Y-105150160D01*
X150687190Y-104898270D01*
X150687190Y-103849250D01*
X150642912Y-103613933D01*
X150577009Y-103511516D01*
X150578077Y-103510448D01*
X150674750Y-103277059D01*
X150674750Y-102911990D01*
X150516000Y-102753240D01*
X149627000Y-102753240D01*
X149627000Y-102773240D01*
X149373000Y-102773240D01*
X149373000Y-102753240D01*
X148484000Y-102753240D01*
X148325250Y-102911990D01*
X148325250Y-103277059D01*
X148421923Y-103510448D01*
X148422684Y-103511209D01*
X148363819Y-103597360D01*
X148312810Y-103849250D01*
X148312810Y-104898270D01*
X148357088Y-105133587D01*
X148408186Y-105212995D01*
X148224894Y-105249455D01*
X147970221Y-105419621D01*
X147970219Y-105419624D01*
X147658721Y-105731121D01*
X147488555Y-105985793D01*
X147438828Y-106235786D01*
X147428800Y-106286200D01*
X147428800Y-107543894D01*
X147421608Y-107551073D01*
X147278962Y-107894601D01*
X147278638Y-108266567D01*
X147353067Y-108446700D01*
X144021502Y-108446700D01*
X143900474Y-108325672D01*
X144094957Y-108034609D01*
X144201297Y-107500000D01*
X144094957Y-106965391D01*
X143792125Y-106512172D01*
X143354338Y-106219651D01*
X143413941Y-106202059D01*
X143839630Y-105858026D01*
X144101260Y-105377277D01*
X144116220Y-105303070D01*
X143993720Y-105087000D01*
X142127000Y-105087000D01*
X142127000Y-105107000D01*
X141873000Y-105107000D01*
X141873000Y-105087000D01*
X141853000Y-105087000D01*
X141853000Y-104833000D01*
X141873000Y-104833000D01*
X141873000Y-104813000D01*
X142127000Y-104813000D01*
X142127000Y-104833000D01*
X143993720Y-104833000D01*
X144116220Y-104616930D01*
X144101260Y-104542723D01*
X143839630Y-104061974D01*
X143546634Y-103825181D01*
X143759317Y-103785162D01*
X143975441Y-103646090D01*
X144120431Y-103433890D01*
X144171440Y-103182000D01*
X144171440Y-103101233D01*
X144386701Y-102957401D01*
X144807702Y-102536400D01*
X150812810Y-102536400D01*
X150812810Y-103150750D01*
X150812810Y-103150750D01*
G37*
X150812810Y-103150750D02*
X150857088Y-103386067D01*
X150930373Y-103499955D01*
X150863819Y-103597360D01*
X150812810Y-103849250D01*
X150812810Y-104898270D01*
X150857088Y-105133587D01*
X150909283Y-105214700D01*
X150592083Y-105214700D01*
X150636181Y-105150160D01*
X150687190Y-104898270D01*
X150687190Y-103849250D01*
X150642912Y-103613933D01*
X150577009Y-103511516D01*
X150578077Y-103510448D01*
X150674750Y-103277059D01*
X150674750Y-102911990D01*
X150516000Y-102753240D01*
X149627000Y-102753240D01*
X149627000Y-102773240D01*
X149373000Y-102773240D01*
X149373000Y-102753240D01*
X148484000Y-102753240D01*
X148325250Y-102911990D01*
X148325250Y-103277059D01*
X148421923Y-103510448D01*
X148422684Y-103511209D01*
X148363819Y-103597360D01*
X148312810Y-103849250D01*
X148312810Y-104898270D01*
X148357088Y-105133587D01*
X148408186Y-105212995D01*
X148224894Y-105249455D01*
X147970221Y-105419621D01*
X147970219Y-105419624D01*
X147658721Y-105731121D01*
X147488555Y-105985793D01*
X147438828Y-106235786D01*
X147428800Y-106286200D01*
X147428800Y-107543894D01*
X147421608Y-107551073D01*
X147278962Y-107894601D01*
X147278638Y-108266567D01*
X147353067Y-108446700D01*
X144021502Y-108446700D01*
X143900474Y-108325672D01*
X144094957Y-108034609D01*
X144201297Y-107500000D01*
X144094957Y-106965391D01*
X143792125Y-106512172D01*
X143354338Y-106219651D01*
X143413941Y-106202059D01*
X143839630Y-105858026D01*
X144101260Y-105377277D01*
X144116220Y-105303070D01*
X143993720Y-105087000D01*
X142127000Y-105087000D01*
X142127000Y-105107000D01*
X141873000Y-105107000D01*
X141873000Y-105087000D01*
X141853000Y-105087000D01*
X141853000Y-104833000D01*
X141873000Y-104833000D01*
X141873000Y-104813000D01*
X142127000Y-104813000D01*
X142127000Y-104833000D01*
X143993720Y-104833000D01*
X144116220Y-104616930D01*
X144101260Y-104542723D01*
X143839630Y-104061974D01*
X143546634Y-103825181D01*
X143759317Y-103785162D01*
X143975441Y-103646090D01*
X144120431Y-103433890D01*
X144171440Y-103182000D01*
X144171440Y-103101233D01*
X144386701Y-102957401D01*
X144807702Y-102536400D01*
X150812810Y-102536400D01*
X150812810Y-103150750D01*
G36*
X150193748Y-107485858D02*
X150179605Y-107500000D01*
X150193748Y-107514143D01*
X150014143Y-107693748D01*
X150000000Y-107679605D01*
X149985858Y-107693748D01*
X149806253Y-107514143D01*
X149820395Y-107500000D01*
X149806253Y-107485858D01*
X149985858Y-107306253D01*
X150000000Y-107320395D01*
X150014143Y-107306253D01*
X150193748Y-107485858D01*
X150193748Y-107485858D01*
G37*
X150193748Y-107485858D02*
X150179605Y-107500000D01*
X150193748Y-107514143D01*
X150014143Y-107693748D01*
X150000000Y-107679605D01*
X149985858Y-107693748D01*
X149806253Y-107514143D01*
X149820395Y-107500000D01*
X149806253Y-107485858D01*
X149985858Y-107306253D01*
X150000000Y-107320395D01*
X150014143Y-107306253D01*
X150193748Y-107485858D01*
G36*
X154605100Y-105441002D02*
X154605100Y-106773240D01*
X154373000Y-106773240D01*
X154373000Y-106753240D01*
X153484000Y-106753240D01*
X153325250Y-106911990D01*
X153325250Y-107277059D01*
X153421923Y-107510448D01*
X153422684Y-107511209D01*
X153377389Y-107577500D01*
X152833800Y-107577500D01*
X152799090Y-107523559D01*
X152766975Y-107501616D01*
X152786441Y-107489090D01*
X152931431Y-107276890D01*
X152982440Y-107025000D01*
X152982440Y-106498681D01*
X153153192Y-106328227D01*
X153295838Y-105984699D01*
X153295846Y-105975421D01*
X153325250Y-105975421D01*
X153325250Y-106340490D01*
X153484000Y-106499240D01*
X154373000Y-106499240D01*
X154373000Y-105625480D01*
X154214250Y-105466730D01*
X153833940Y-105466730D01*
X153600551Y-105563403D01*
X153421923Y-105742032D01*
X153325250Y-105975421D01*
X153295846Y-105975421D01*
X153296162Y-105612733D01*
X153154117Y-105268957D01*
X153095281Y-105210019D01*
X153136181Y-105150160D01*
X153187190Y-104898270D01*
X153187190Y-104023092D01*
X154605100Y-105441002D01*
X154605100Y-105441002D01*
G37*
X154605100Y-105441002D02*
X154605100Y-106773240D01*
X154373000Y-106773240D01*
X154373000Y-106753240D01*
X153484000Y-106753240D01*
X153325250Y-106911990D01*
X153325250Y-107277059D01*
X153421923Y-107510448D01*
X153422684Y-107511209D01*
X153377389Y-107577500D01*
X152833800Y-107577500D01*
X152799090Y-107523559D01*
X152766975Y-107501616D01*
X152786441Y-107489090D01*
X152931431Y-107276890D01*
X152982440Y-107025000D01*
X152982440Y-106498681D01*
X153153192Y-106328227D01*
X153295838Y-105984699D01*
X153295846Y-105975421D01*
X153325250Y-105975421D01*
X153325250Y-106340490D01*
X153484000Y-106499240D01*
X154373000Y-106499240D01*
X154373000Y-105625480D01*
X154214250Y-105466730D01*
X153833940Y-105466730D01*
X153600551Y-105563403D01*
X153421923Y-105742032D01*
X153325250Y-105975421D01*
X153295846Y-105975421D01*
X153296162Y-105612733D01*
X153154117Y-105268957D01*
X153095281Y-105210019D01*
X153136181Y-105150160D01*
X153187190Y-104898270D01*
X153187190Y-104023092D01*
X154605100Y-105441002D01*
M02*
